<svg width="150" height="47" viewBox="0 0 150 47" fill="none" xmlns="http://www.w3.org/2000/svg">
<path d="M104.695 3.72805C102.441 4.92635 100.32 6.52408 98.7295 8.3881C95.4156 11.983 93.5597 15.9773 95.0179 17.0425C95.5481 17.4419 96.7411 17.5751 98.9947 15.4448C101.116 13.5807 102.706 11.3173 103.767 8.78754C105.225 5.32578 104.695 3.72805 104.695 3.72805ZM122.458 10.119C118.879 8.25496 116.227 5.9915 113.444 4.52691C110.66 3.06232 109.202 2.66289 107.081 2.92918C106.816 2.92918 106.551 3.06232 106.153 3.19547C106.153 3.19547 107.213 6.92351 102.971 13.1813C98.597 19.4391 94.6202 19.5722 93.5597 17.8414C92.4992 16.1105 93.9574 12.2493 96.476 8.92068C98.597 6.39093 101.116 4.26062 103.899 2.52975C103.899 2.52975 102.441 1.59773 98.7295 3.72805C92.4992 7.58924 87.1968 12.7819 83.22 18.7734C77.52 27.0283 76.3269 31.5552 75.5316 35.017C74.7362 38.6119 75.399 42.3399 79.3758 42.3399C83.3526 42.3399 87.8596 36.3484 89.1852 34.2181C91.5713 30.3569 93.162 24.3654 89.848 25.1643C88.2573 25.5637 86.9317 27.2946 86.1364 29.0255C85.6061 30.0907 85.2084 31.289 84.9433 32.4873C83.7503 33.0198 82.6898 33.5524 81.7619 34.3513C80.7014 35.1501 79.6409 36.0822 78.713 37.0142C78.9781 34.3513 79.7735 31.8215 80.9665 29.5581C82.5572 25.9632 85.8712 23.4334 89.7155 22.6346C91.8364 22.5014 94.6202 24.2323 92.2341 30.8895C89.848 37.5467 83.0875 45.6686 75.7967 45.6686C69.1687 45.8017 64.7942 37.2805 74.0734 22.3683C84.2805 5.9915 96.2109 0.932012 100.188 0.399434C104.164 -0.133144 105.358 1.59773 105.358 1.59773C107.744 0.665722 110.262 0.266289 112.781 0.399434C117.553 0.665723 121.265 4.12748 126.169 6.52408C124.844 7.58923 123.651 8.92068 122.458 10.119ZM143.932 4.52691C140.618 6.65722 136.111 8.65439 131.737 8.12181C130.676 9.32011 129.483 10.6516 128.29 12.1161C135.979 13.5807 142.607 8.92068 146.186 4.7932C147.512 3.32861 148.572 1.73088 149.5 0C147.644 1.86402 145.921 3.32861 143.932 4.52691ZM133.858 26.0963C133.858 25.9632 133.99 25.83 133.99 25.83C133.99 25.4306 133.725 25.1643 133.328 25.1643C132.532 25.1643 131.604 25.2975 129.086 28.0935C126.965 30.4901 125.109 33.153 123.518 35.949C122.06 38.6119 121.397 40.7422 122.325 41.2748C122.59 41.4079 122.988 41.4079 123.253 41.4079C123.783 41.2748 124.446 40.7422 125.507 39.5439C125.904 39.0113 126.567 38.2125 127.097 37.4136C128.688 35.1501 132.93 27.6941 133.858 26.0963ZM106.816 29.2918C107.213 28.0935 107.744 25.9632 106.683 25.0312C105.49 24.0991 102.309 26.2295 102.309 28.4929C102.441 30.0907 103.502 31.5552 105.092 31.9547C105.358 32.0878 105.49 32.0878 105.623 31.8215C106.02 31.0227 106.418 30.2238 106.816 29.2918ZM104.43 33.5524C103.634 33.153 102.971 32.7535 102.309 32.221C101.646 31.6884 101.116 31.0227 100.718 30.2238C100.718 30.0907 100.585 30.2238 100.585 30.2238C99.9226 31.0227 99.2598 31.9547 98.7295 32.8867C97.0063 35.4164 94.4876 40.4759 96.8737 41.2748C98.3319 41.8074 100.851 39.2776 102.176 37.4136C103.104 36.2153 103.899 34.8839 104.695 33.5524C104.562 33.5524 104.562 33.5524 104.43 33.5524ZM130.809 39.4108C130.146 40.4759 129.483 42.3399 131.604 41.1416C134.123 39.6771 137.835 34.085 137.835 34.085H139.425C137.967 36.3484 136.244 38.6119 134.521 40.6091C132.002 43.4051 128.821 46.068 126.567 45.8017C123.916 45.5354 124.844 42.0737 124.844 42.0737C124.844 42.0737 121.132 46.068 118.614 45.8017C115.167 45.4023 116.227 41.1416 116.227 41.1416C116.227 41.1416 112.251 45.9348 109.599 45.8017C105.358 45.5354 106.418 40.4759 107.611 36.881C108.274 34.8839 108.804 33.4193 108.804 33.4193C108.804 33.4193 108.406 33.5524 107.479 33.6856C107.081 33.6856 106.153 33.8187 106.153 33.8187C106.153 33.8187 104.43 36.881 102.971 38.745C101.513 40.6091 95.6807 47 92.2341 45.6686C89.0527 44.4703 90.1132 39.5439 91.969 35.5496C94.7527 29.8244 102.309 21.5694 106.816 22.6346C111.19 23.6997 106.948 32.221 106.948 32.221C107.213 32.221 107.479 32.221 107.876 32.221C108.406 32.0878 109.069 31.9547 109.599 31.6884C112.383 25.9632 115.565 20.6374 119.276 15.5779C124.314 9.18697 134.521 -1.73088 138.498 0.932011C139.425 1.59773 139.028 3.86119 137.702 6.52408C137.172 6.65722 136.509 6.92351 135.846 7.05666C136.509 5.85836 137.172 4.52691 137.437 3.19547C137.967 -0.133144 130.411 6.79037 124.976 14.2465C121.662 18.7734 118.746 23.4334 116.227 28.4929C117.155 27.9603 118.216 27.1615 119.011 26.4958C121.397 24.4986 123.783 22.2351 125.904 19.9717C128.025 17.8414 130.014 15.5779 131.87 13.1813C132.4 13.1813 133.063 13.0482 133.593 13.0482C131.604 15.711 129.483 18.3739 127.097 20.7705C124.976 23.034 122.59 25.2974 120.469 27.1615C118.614 28.7592 116.758 30.2238 114.769 31.4221C114.769 31.4221 109.997 41.0085 112.516 41.6742C114.106 42.0737 117.023 37.4136 117.023 37.4136C117.023 37.4136 121 31.4221 123.386 28.6261C126.567 24.898 129.351 22.7677 132.135 22.7677C133.195 22.9009 134.123 23.5666 134.653 24.4986L135.449 23.3003H140.221C140.353 23.3003 131.604 38.2125 130.809 39.4108ZM143.932 4.52691C140.618 6.65722 136.111 8.65439 131.737 8.12181C130.676 9.32011 129.483 10.6516 128.29 12.1161C135.979 13.5807 142.607 8.92068 146.186 4.7932C147.512 3.32861 148.572 1.73088 149.5 0C147.644 1.86402 145.921 3.32861 143.932 4.52691ZM135.846 43.1388H136.509C136.642 43.1388 136.907 43.1388 137.039 43.1388C137.304 43.272 137.437 43.4051 137.304 43.6714C137.304 43.8045 137.172 43.9377 137.039 44.0708C136.907 44.0708 136.907 44.204 136.774 44.204C136.907 44.204 137.039 44.3371 137.172 44.4703C137.304 44.6034 137.304 44.7365 137.304 44.7365V45.0028V45.136H137.039V44.8697C137.039 44.6034 137.039 44.4703 136.907 44.3371C136.774 44.3371 136.642 44.204 136.509 44.204H136.244V45.0028H135.846V43.1388ZM137.039 43.6714C137.039 43.5382 137.039 43.4051 136.907 43.4051C136.774 43.4051 136.642 43.272 136.509 43.272H136.244V44.0708H136.509C136.642 44.0708 136.774 44.0708 136.907 44.0708C137.039 44.0708 137.039 43.9377 137.039 43.6714ZM138.365 44.204C138.365 45.0028 137.835 45.8017 137.039 46.068C136.244 46.3343 135.316 45.9348 134.918 45.136C134.521 44.3371 134.653 43.4051 135.184 42.8725C135.979 42.2068 137.039 42.2068 137.835 42.8725C138.232 43.1388 138.365 43.6714 138.365 44.204ZM136.509 42.4731C136.111 42.4731 135.714 42.6062 135.316 43.0057C135.051 43.272 134.786 43.6714 134.786 44.204C134.786 44.6034 134.918 45.0028 135.316 45.4023C135.581 45.6686 135.979 45.9348 136.509 45.8017C136.907 45.8017 137.437 45.6686 137.702 45.4023C137.967 45.136 138.232 44.6034 138.232 44.204C138.232 43.8045 138.1 43.4051 137.702 43.0057C137.437 42.7394 137.039 42.6062 136.509 42.4731ZM78.0502 11.983H73.5432L71.0245 15.9773H75.5316L78.0502 11.983ZM56.8406 26.0963C58.6964 23.4334 63.9988 14.3796 63.9988 14.3796C63.9988 13.9802 63.6012 13.7139 63.336 13.7139C62.6732 13.7139 61.3476 13.9802 58.9616 16.9093C56.8406 19.4391 54.9848 21.9688 53.394 24.898C51.9359 27.5609 51.2731 29.5581 52.0684 30.0907C52.3336 30.2238 52.7312 30.2238 52.9964 30.2238C53.9243 29.8244 54.8522 29.1586 55.3824 28.3598C55.7801 27.694 56.3104 26.8952 56.8406 26.0963ZM32.8473 13.7139C31.6542 12.7819 28.4728 14.9122 28.4728 17.1756C28.4728 19.4391 31.2565 20.238 31.6542 20.238C31.7868 20.238 32.0519 20.238 32.0519 20.1048C32.1845 19.9717 32.4496 19.1728 32.9798 18.1076C33.51 16.9093 34.0403 14.6459 32.8473 13.7139ZM31.124 21.7025C30.1961 21.4363 29.4007 21.0368 28.6053 20.6374C27.9425 20.1048 27.2797 19.4391 26.8821 18.7734C26.8821 18.6402 26.7495 18.7734 26.7495 18.7734C26.7495 18.7734 26.4844 19.1728 24.7611 21.7025C23.0378 24.0991 20.6517 29.2918 22.9053 30.0907C24.3634 30.6232 26.8821 27.9603 28.2077 26.2295C29.2681 24.898 30.196 23.4334 30.9914 21.9688C31.124 21.7025 31.124 21.7025 31.124 21.7025ZM67.4454 23.1671H69.0361C69.0361 23.1671 60.8174 35.017 56.1778 34.4844C53.6592 34.2181 54.322 31.0227 54.322 31.0227C54.322 31.0227 50.7428 35.2833 47.4288 34.4844C44.5125 33.6856 46.5009 28.6261 46.5009 28.6261C46.1032 28.7592 39.6078 36.2153 34.9682 34.3513C30.3286 32.4873 32.5821 26.2295 33.6426 24.3654C34.438 22.7677 35.2333 21.3031 35.2333 21.3031C35.2333 21.3031 34.438 21.5694 34.0403 21.5694L32.8473 21.8357C32.8473 21.8357 30.5937 25.5637 29.1356 27.4278C27.6774 29.2918 21.8448 35.6827 18.3982 34.3513C14.9517 33.0198 15.747 28.2266 17.7354 24.3654C20.9169 17.9745 28.4728 10.2521 32.9798 11.4504C37.4868 12.6487 33.7752 20.1048 33.7752 20.1048C33.7752 20.1048 34.7031 20.238 36.824 18.7734C40.0055 16.6431 44.1148 10.7847 48.6219 11.4504C50.7428 11.7167 52.7312 13.9802 49.9475 18.1076C49.0196 19.4391 47.694 20.6374 46.5009 19.4391C45.8381 18.7734 46.3684 17.4419 47.1637 16.5099C47.694 15.711 48.6219 15.3116 49.5498 15.4448C49.5498 15.4448 50.3452 13.7139 48.3568 13.7139C46.766 13.7139 42.9218 17.3088 40.8008 20.9037C38.8124 24.2323 35.7636 29.8244 38.8124 31.1558C41.5962 32.221 46.8986 25.9632 49.4172 22.6346C51.9359 19.3059 57.5034 11.7167 62.143 11.4504C63.2035 11.4504 64.1314 11.983 64.6616 12.7819L65.1919 11.8499H69.964C69.964 11.8499 61.0825 26.762 60.4197 27.8272C59.8895 28.7592 59.0941 30.7564 61.2151 29.5581C63.336 28.3598 67.578 23.1671 67.4454 23.1671ZM65.0593 47C61.6128 44.6034 57.3708 43.4051 53.2615 43.5382C51.008 43.5382 48.7544 44.7365 47.4288 46.7337C45.7056 43.5382 42.1264 41.6742 36.5589 41.6742C27.6774 41.8074 18.9285 45.9348 11.9028 45.9348C5.27478 45.9348 0.370064 41.6742 0.502624 34.2181C0.767744 21.0368 11.9028 9.18697 20.1215 3.86119C24.8937 0.798866 28.8705 -0.133145 31.3891 0.133144C32.5821 0.266289 33.6426 1.06516 34.3054 2.26346C34.8356 3.32861 34.8356 4.66006 34.1728 5.85836C32.0519 10.6516 29.1356 10.2521 29.2681 7.98867C29.4007 6.79037 30.0635 5.72521 30.9914 5.05949C31.5216 4.7932 32.0519 4.66006 32.7147 4.66006C33.1124 4.26062 33.51 1.73088 30.0635 2.52975C26.6169 3.32861 22.5076 6.79037 18.6633 11.051C14.8191 15.3116 8.72134 23.5666 7.13062 32.221C6.46782 36.2153 6.8655 43.5382 16.2773 43.4051C24.2309 43.4051 36.0287 38.0793 46.8986 38.2125C50.6103 38.2125 54.322 39.1445 57.636 41.1416C60.4197 42.6062 62.9384 44.6034 65.0593 47Z" fill="#F2F2F2"/>
</svg>
