<svg width="151" height="47" viewBox="0 0 151 47" fill="none" xmlns="http://www.w3.org/2000/svg">
<path d="M19.2634 16.7705V21.7909H31.3792C31.0575 24.5682 30.0926 26.7045 28.5915 28.0932C26.876 29.8023 24.0883 31.725 19.2634 31.725C11.8653 31.725 6.07541 25.7432 6.07541 18.3727C6.07541 11.0023 11.758 5.02045 19.2634 5.02045C23.2305 5.02045 26.2327 6.62273 28.3771 8.65227L31.9153 5.12727C28.9132 2.24318 24.8388 0 19.2634 0C9.07756 0 0.5 8.225 0.5 18.3727C0.5 28.5205 9.07756 36.7455 19.2634 36.7455C24.7316 36.7455 28.9132 34.9295 32.1297 31.6182C35.4535 28.3068 36.5257 23.6068 36.5257 19.8682C36.5257 18.6932 36.4185 17.625 36.3113 16.7705H19.2634Z" fill="#F2F2F2"/>
<path d="M51.5364 12.6045C44.996 12.6045 39.5278 17.6249 39.5278 24.4613C39.5278 31.2977 44.8888 36.3181 51.5364 36.3181C58.184 36.3181 63.545 31.4045 63.545 24.5681C63.545 17.6249 58.184 12.6045 51.5364 12.6045ZM51.5364 31.7249C47.8909 31.7249 44.7816 28.734 44.7816 24.5681C44.7816 20.2954 47.8909 17.4113 51.5364 17.4113C55.1819 17.4113 58.2912 20.2954 58.2912 24.5681C58.2912 28.734 55.1819 31.7249 51.5364 31.7249Z" fill="#F2F2F2"/>
<path d="M110.185 15.2749H109.971C108.791 13.8863 106.54 12.6045 103.645 12.6045C97.6407 12.6045 92.4941 17.7318 92.4941 24.4613C92.4941 31.084 97.6407 36.3181 103.645 36.3181C106.54 36.3181 108.791 35.0363 109.971 33.6477H110.185V35.3568C110.185 39.8431 107.719 42.2999 103.859 42.2999C100.643 42.2999 98.7129 40.0568 97.8551 38.0272L93.3519 39.9499C94.6385 43.0477 98.1768 46.9999 103.967 46.9999C110.078 46.9999 115.332 43.3681 115.332 34.609V13.2454H110.4V15.2749H110.185ZM104.181 31.7249C100.536 31.7249 97.8551 28.6272 97.8551 24.5681C97.8551 20.4022 100.643 17.4113 104.181 17.4113C107.719 17.4113 110.507 20.509 110.507 24.6749C110.614 28.734 107.827 31.7249 104.181 31.7249Z" fill="#F2F2F2"/>
<path d="M78.2342 12.6045C71.6938 12.6045 66.2256 17.6249 66.2256 24.4613C66.2256 31.2977 71.5866 36.3181 78.2342 36.3181C84.8818 36.3181 90.2427 31.4045 90.2427 24.5681C90.2427 17.6249 84.8818 12.6045 78.2342 12.6045ZM78.2342 31.7249C74.5887 31.7249 71.4793 28.734 71.4793 24.5681C71.4793 20.2954 74.5887 17.4113 78.2342 17.4113C81.8796 17.4113 84.989 20.2954 84.989 24.5681C84.989 28.734 81.8796 31.7249 78.2342 31.7249Z" fill="#F2F2F2"/>
<path d="M119.299 0.53418H124.446V36.4251H119.299V0.53418Z" fill="#F2F2F2"/>
<path d="M140.314 31.7249C137.634 31.7249 135.811 30.5499 134.524 28.0931L150.5 21.5772L149.964 20.1886C148.999 17.5181 145.89 12.6045 139.778 12.6045C133.667 12.6045 128.52 17.4113 128.52 24.4613C128.52 31.084 133.559 36.3181 140.314 36.3181C145.782 36.3181 148.892 33.0068 150.286 31.084L146.211 28.4136C144.817 30.4431 142.995 31.7249 140.314 31.7249ZM139.993 17.0909C142.137 17.0909 143.96 18.159 144.496 19.6545L133.774 24.1409C133.667 19.2272 137.312 17.0909 139.993 17.0909Z" fill="#F2F2F2"/>
</svg>
