<svg width="246" height="48" viewBox="0 0 246 48" fill="none" xmlns="http://www.w3.org/2000/svg">
<path d="M102.157 32.6341L99.6571 32.259C97.2652 31.9069 95.8881 31.1327 95.8881 29.7163C95.8881 28.0938 97.6873 27.0885 100.346 27.0885C102.23 27.0885 103.751 27.7907 105.225 28.5419L105.514 28.687C105.853 28.856 106.215 28.941 106.589 28.941C107.459 28.941 108.257 28.4689 108.68 27.7057L108.884 27.3306C109.211 26.7374 109.283 26.0592 109.078 25.418C108.884 24.7758 108.437 24.2557 107.845 23.9526C105.708 22.8873 103.401 21.918 100.346 21.918C93.9673 21.918 89.8611 25.0059 89.8611 29.9703C89.8611 34.0505 92.7838 36.6053 98.3159 37.3565L100.841 37.6836C103.51 38.0587 104.814 38.8459 104.814 40.1043C104.814 41.2666 104.186 42.8051 100.055 42.8051C97.7721 42.8051 95.4651 42.2239 93.5811 41.0366C93.2069 40.7945 92.7718 40.6735 92.3248 40.6735C91.5036 40.6735 90.7182 41.1096 90.2832 41.8238L90.1385 42.0539C89.7882 42.623 89.6795 43.3132 89.8491 43.9674C90.0177 44.6086 90.4159 45.1418 90.9966 45.4679C94.2696 47.3214 98.0505 47.9746 100.043 47.9746C106.686 47.9746 110.805 45.0567 110.805 39.9232C110.805 35.818 107.894 33.4573 102.157 32.6341Z" fill="#F2F2F2"/>
<path d="M180.353 41.8124L180.159 41.6063C179.676 41.0741 178.989 40.7591 178.275 40.7591C177.792 40.7591 177.309 40.8921 176.898 41.1582C175.546 42.0184 174.06 42.4786 172.61 42.4786C168.612 42.4786 165.726 39.3186 165.726 34.9594C165.726 30.6001 168.625 27.4402 172.61 27.4402C174.145 27.4402 175.509 27.8513 176.801 28.7115C177.804 29.3777 179.229 29.2077 180.051 28.3234L180.268 28.0943C180.836 27.4882 181.102 26.6769 181.005 25.8537C180.909 25.0545 180.474 24.3282 179.809 23.8921C177.84 22.5847 175.412 21.8945 172.768 21.8945C165.11 21.8945 159.759 27.2581 159.759 34.9353C159.759 42.6116 165.11 47.9752 172.768 47.9752C175.424 47.9752 177.865 47.273 179.846 45.9416C180.51 45.4934 180.946 44.7912 181.041 43.992C181.138 43.2168 180.897 42.4175 180.353 41.8124Z" fill="#F2F2F2"/>
<path d="M55.1476 13.8311C53.1538 13.8311 51.5962 15.4165 51.5962 17.4391C51.5962 19.4727 53.1299 20.9992 55.1476 20.9992C57.1642 20.9992 58.7468 19.4367 58.7468 17.4391C58.7588 15.4165 57.1762 13.8311 55.1476 13.8311Z" fill="#F2F2F2"/>
<path d="M56.2332 22.876H54.1317C53.1049 22.876 52.2717 23.7112 52.2717 24.7405V45.5176C52.2717 46.5469 53.1049 47.3822 54.1317 47.3822H56.2332C57.26 47.3822 58.0932 46.5469 58.0932 45.5176V24.7405C58.0932 23.7112 57.26 22.876 56.2332 22.876Z" fill="#F2F2F2"/>
<path d="M125.71 27.5609C126.737 27.5609 127.569 26.7256 127.569 25.6963V23.9888C127.569 22.9595 126.737 22.1243 125.71 22.1243H120.6V17.2688C120.6 16.2395 119.767 15.4043 118.74 15.4043H116.53C115.503 15.4043 114.67 16.2395 114.67 17.2688V36.9206C114.67 42.7933 119.114 47.9868 125.263 47.9868C125.879 47.9868 126.459 47.7448 126.894 47.3096C127.329 46.8735 127.569 46.2923 127.569 45.6752V44.2337C127.569 43.1924 126.724 42.3692 125.685 42.3692C123.33 42.3572 120.6 40.5046 120.6 37.2717V27.5729H125.71V27.5609Z" fill="#F2F2F2"/>
<path d="M74.5209 21.918C67.0679 21.918 62.9248 27.8877 62.9248 32.9972V45.5049C62.9248 46.5342 63.758 47.3694 64.7848 47.3694H66.9112C67.938 47.3694 68.7713 46.5342 68.7713 45.5049V33.9295C68.7713 30.0554 71.1142 27.4876 74.5329 27.4876C77.9506 27.4876 80.2935 30.0554 80.2935 33.9295V45.5049C80.2935 46.5342 81.1277 47.3694 82.1545 47.3694H84.28C85.3068 47.3694 86.14 46.5342 86.14 45.5049V32.9972C86.128 27.8877 81.9729 21.918 74.5209 21.918Z" fill="#F2F2F2"/>
<path d="M229.996 22.948C229.755 22.5488 229.368 22.2818 228.91 22.1857C228.1 22.0037 226.083 21.9307 225.032 21.9307C224.935 21.9307 224.838 21.9307 224.754 21.9307C218.993 21.9307 213.666 26.641 213.666 33.1429V45.5176C213.666 46.5469 214.499 47.3821 215.526 47.3821H217.652C218.679 47.3821 219.512 46.5469 219.512 45.5176V33.349C219.512 29.813 222.036 27.5123 225.117 27.5123C225.684 27.5253 226.288 27.5853 226.88 27.7064C227.037 27.7424 227.206 27.7554 227.375 27.7554C228.546 27.7554 229.573 26.9441 229.852 25.7938C230.008 25.1636 230.117 24.6915 230.214 24.2683C230.311 23.8202 230.238 23.3361 229.996 22.948Z" fill="#F2F2F2"/>
<path d="M244.14 27.5609C245.167 27.5609 246.001 26.7256 246.001 25.6963V23.9888C246.001 22.9595 245.167 22.1243 244.14 22.1243H239.031V17.2688C239.031 16.2395 238.198 15.4043 237.171 15.4043H234.961C233.934 15.4043 233.101 16.2395 233.101 17.2688V36.9206C233.101 42.7933 237.545 47.9868 243.693 47.9868C244.31 47.9868 244.889 47.7448 245.324 47.3096C245.758 46.8735 246.001 46.2923 246.001 45.6752V44.2337C246.001 43.1924 245.155 42.3692 244.116 42.3692C241.761 42.3572 239.031 40.5046 239.031 37.2717V27.5729H244.14V27.5609Z" fill="#F2F2F2"/>
<path d="M198.702 42.0902C198.025 42.3202 197.324 42.4413 196.636 42.4783C196.588 42.4783 196.539 42.4783 196.478 42.4783C196.443 42.4783 196.394 42.4783 196.359 42.4783C196.322 42.4783 196.274 42.4783 196.238 42.4783C196.189 42.4783 196.141 42.4783 196.08 42.4783C195.392 42.4533 194.703 42.3202 194.015 42.0902C191.272 41.1219 189.449 38.4221 189.449 34.9711C189.449 30.8909 191.986 27.863 195.585 27.4879C195.609 27.4879 195.621 27.4879 195.646 27.4879C195.73 27.4759 195.815 27.4759 195.888 27.4639C195.935 27.4639 195.983 27.4639 196.032 27.4519C196.116 27.4519 196.189 27.4519 196.274 27.4519C196.298 27.4519 196.334 27.4519 196.359 27.4519C196.382 27.4519 196.418 27.4519 196.443 27.4519C196.527 27.4519 196.6 27.4519 196.684 27.4519C196.733 27.4519 196.781 27.4519 196.83 27.4639C196.913 27.4639 196.998 27.4759 197.071 27.4879C197.095 27.4879 197.107 27.4879 197.131 27.4879C200.73 27.863 203.267 30.8909 203.267 34.9711C203.267 38.4101 201.444 41.1099 198.702 42.0902ZM209.234 34.9591C209.234 30.0796 207.072 26.1445 203.545 23.9168C203.545 23.9168 203.533 23.9158 203.533 23.9038C201.564 22.5965 199.137 21.9062 196.491 21.9062C196.443 21.9062 196.394 21.9062 196.359 21.9062C196.31 21.9062 196.262 21.9062 196.226 21.9062C193.581 21.9062 191.153 22.5965 189.184 23.9038C189.184 23.9038 189.171 23.9038 189.171 23.9168C185.633 26.1445 183.482 30.0796 183.482 34.9591C183.482 40.0686 185.85 44.1488 189.691 46.3044C191.478 47.3577 193.604 47.9999 195.9 47.9999C200.079 47.9999 202.603 45.6262 203.4 44.5849V45.4802C203.4 46.5095 204.234 47.3457 205.259 47.3457H207.386C208.413 47.3457 209.246 46.5095 209.246 45.4802V34.9591H209.234Z" fill="#F2F2F2"/>
<path d="M145.301 42.0902C144.626 42.3202 143.925 42.4413 143.237 42.4783C143.188 42.4783 143.14 42.4783 143.079 42.4783C143.043 42.4783 142.995 42.4783 142.958 42.4783C142.922 42.4783 142.874 42.4783 142.837 42.4783C142.789 42.4783 142.741 42.4783 142.681 42.4783C141.992 42.4533 141.304 42.3202 140.615 42.0902C137.873 41.1219 136.05 38.4221 136.05 34.9711C136.05 30.8909 138.586 27.863 142.186 27.4879C142.21 27.4879 142.222 27.4879 142.246 27.4879C142.33 27.4759 142.415 27.4759 142.487 27.4639C142.536 27.4639 142.584 27.4639 142.633 27.4519C142.717 27.4519 142.789 27.4519 142.874 27.4519C142.898 27.4519 142.934 27.4519 142.958 27.4519C142.982 27.4519 143.019 27.4519 143.043 27.4519C143.128 27.4519 143.2 27.4519 143.284 27.4519C143.332 27.4519 143.381 27.4519 143.429 27.4639C143.514 27.4639 143.599 27.4759 143.672 27.4879C143.696 27.4879 143.708 27.4879 143.731 27.4879C147.331 27.863 149.867 30.8909 149.867 34.9711C149.867 38.4101 148.043 41.1099 145.301 42.0902ZM155.846 34.9591C155.846 30.0796 153.684 26.1445 150.157 23.9168C150.157 23.9168 150.145 23.9158 150.145 23.9038C148.176 22.5965 145.748 21.9062 143.104 21.9062C143.055 21.9062 143.007 21.9062 142.97 21.9062C142.922 21.9062 142.874 21.9062 142.837 21.9062C140.192 21.9062 137.764 22.5965 135.795 23.9038C135.795 23.9038 135.784 23.9038 135.784 23.9168C132.245 26.1445 130.095 30.0796 130.095 34.9591C130.095 40.0686 132.462 44.1488 136.303 46.3044C138.091 47.3577 140.217 47.9999 142.512 47.9999C146.691 47.9999 149.215 45.6262 150.012 44.5849V45.4802C150.012 46.5095 150.846 47.3457 151.872 47.3457H153.998C155.025 47.3457 155.858 46.5095 155.858 45.4802V34.9591H155.846Z" fill="#F2F2F2"/>
<path d="M27.6915 19.5693C30.4336 22.3301 32.6678 26.8344 31.3876 29.5222C27.9579 36.6903 2.41075 49.271 0.249387 47.0913C-1.92495 44.9117 10.6371 19.2912 17.7877 15.8642C20.445 14.5688 24.9494 16.8214 27.6915 19.5693C27.6915 19.5572 27.7035 19.5572 27.6915 19.5693Z" fill="#F2F2F2"/>
<path d="M31.6171 1.29915C33.9241 1.92834 36.2551 3.5148 36.5335 5.8995C37.0404 10.2588 29.3469 17.1358 27.5229 16.6516C25.6988 16.1555 22.4737 6.44466 25.0831 2.8116C26.4112 0.935047 29.31 0.680972 31.6171 1.29915C31.6171 1.29915 31.6171 1.28615 31.6171 1.29915ZM41.2195 16.5426C40.7724 14.8961 39.6379 13.2246 37.9465 13.0316C34.8421 12.6685 29.9506 18.1651 30.3009 19.4725C30.6511 20.7809 37.5603 23.0815 40.1448 21.216C41.4859 20.2597 41.6665 18.1891 41.2195 16.5426Z" fill="#F2F2F2"/>
</svg>
