<svg width="196" height="47" viewBox="0 0 196 47" fill="none" xmlns="http://www.w3.org/2000/svg">
<path fill-rule="evenodd" clip-rule="evenodd" d="M108.937 29.8807C108.937 30.2489 108.875 30.6784 108.813 30.9851C108.255 32.5804 106.768 33.6235 105.033 33.6235C103.484 33.6235 102.307 32.7645 102.307 30.9238C102.307 28.1013 105.405 27.365 108.999 27.365V29.8807H108.937ZM114.514 24.9721C114.514 20.3703 112.531 16.2593 105.777 16.2593C102.307 16.2593 99.5182 17.241 98.031 18.1L99.1464 21.8428C100.881 20.8611 102.802 20.3089 104.785 20.2475C108.255 20.2475 108.813 22.1496 108.813 23.3768V23.6836C101.315 23.6836 96.6057 26.2606 96.6057 31.476C96.6057 34.6666 99.0224 37.6731 103.236 37.6731C105.777 37.6731 107.946 36.6914 109.247 35.0348H109.371C109.371 35.0348 110.238 38.5935 114.948 37.2436C114.7 35.771 114.576 34.1757 114.576 32.335V24.9721H114.514ZM0 9.93945L5.70092 33.0099C6.63041 36.7528 8.24154 38.164 12.951 37.2436L15.9874 24.9721C16.731 21.9042 17.2887 19.7567 17.7844 16.6274H17.8463C18.2181 19.7567 18.7139 21.9042 19.3335 24.9721L21.1925 33.5008C21.8742 36.446 23.6092 38.2867 28.2567 37.2436L35.5068 10.0008H29.62L27.1413 21.7815C26.4597 25.2175 25.84 27.9173 25.4063 31.0465C24.9725 27.9173 24.4148 25.3402 23.7332 22.0269L21.1925 10.0008H15.0579L12.2694 21.7201C11.5258 25.2789 10.7822 28.1627 10.2864 31.1692H10.2245C9.72874 28.3468 9.10907 24.7267 8.42744 21.2906L6.19665 9.93945H0ZM46.289 29.8807C46.289 30.2489 46.289 30.6784 46.165 30.9851C45.6073 32.5804 44.1201 33.6235 42.3851 33.6235C40.8359 33.6235 39.6586 32.7645 39.6586 30.9238C39.6586 28.1013 42.7569 27.365 46.3509 27.365V29.8807H46.289ZM51.9279 24.9721C51.9279 20.3703 49.945 16.2593 43.1906 16.2593C39.7205 16.2593 36.932 17.241 35.4448 18.1L36.5602 21.8428C38.2953 20.8611 40.2162 20.3089 42.1992 20.2475C45.6693 20.2475 46.227 22.1496 46.227 23.3768V23.6836C38.7291 23.6836 34.0196 26.2606 34.0196 31.476C34.0196 34.6666 36.4363 37.6731 40.65 37.6731C43.1906 37.6731 45.3595 36.6914 46.6608 35.0348H46.7847C46.7847 35.0348 47.6522 38.5935 52.3617 37.2436C52.1138 35.771 51.9899 34.1757 51.9899 32.335V24.9721H51.9279ZM60.5413 31.4146V9.93945H54.9643V37.1823H60.5413V31.4146ZM131.679 10.0008V30.0648C131.679 32.8259 132.175 34.7893 133.352 35.9551C134.343 36.9982 135.954 37.6731 137.875 37.6731C139.549 37.6731 141.16 37.3663 141.903 37.0596L141.841 32.7032C141.284 32.8872 140.602 32.9486 139.734 32.9486C137.813 32.9486 137.194 31.7828 137.194 29.2671V21.6588H142.089V16.4434H137.194V9.93945L131.679 10.0008ZM117.241 16.7502V37.2436H123.003V26.7515C123.003 26.1992 123.065 25.7084 123.127 25.2175C123.561 23.0086 125.234 21.5974 127.713 21.5974C128.395 21.5974 128.828 21.6588 129.386 21.7201V16.3207C128.952 16.2593 128.518 16.1979 128.147 16.1979C125.978 16.1979 123.561 17.5478 122.508 20.5543H122.384V16.6888L117.241 16.7502ZM63.8255 16.7502V37.2436H69.4025V25.2175C69.4025 24.6653 69.4644 24.0517 69.6503 23.5609C70.0841 22.3337 71.2615 20.9225 73.0585 20.9225C75.3512 20.9225 76.4047 22.8246 76.4047 25.5243V37.1823H82.0436V25.0334C82.0436 24.4812 82.1056 23.8063 82.2915 23.3768C82.7253 21.9042 84.1505 20.8611 85.6997 20.8611C87.9924 20.8611 89.1078 22.7019 89.1078 25.9538V37.1823H94.7467V25.1562C94.7467 18.8363 91.4625 16.2593 87.8065 16.2593C86.1334 16.2593 84.8941 16.6888 83.7167 17.3637C82.7253 17.9773 81.8577 18.8363 81.1141 19.9408H81.0522C80.1227 17.6705 77.8299 16.1979 75.3512 16.2593C72.8726 16.1366 70.5179 17.3637 69.3405 19.5113H69.2785V16.7502H63.8255Z" fill="#F2F2F2"/>
<path fill-rule="evenodd" clip-rule="evenodd" d="M172.267 15.8303C173.382 15.8303 174.312 15.2167 174.436 14.5418L175.489 2.20888C175.489 0.981723 174.064 0 172.267 0C170.47 0 169.045 0.981723 169.045 2.20888L170.16 14.5418C170.222 15.2781 171.151 15.8303 172.267 15.8303ZM165.513 19.6958C166.07 18.7141 166.008 17.671 165.451 17.1802L155.226 10.124C154.173 9.51044 152.562 10.2467 151.694 11.7807C150.764 13.3146 150.95 15.094 152.004 15.6462L163.344 20.8616C164.025 21.107 165.017 20.6162 165.513 19.6958ZM178.959 19.6345C179.517 20.6162 180.446 21.107 181.19 20.8003L192.468 15.5849C193.521 14.9713 193.707 13.2533 192.778 11.7193C191.848 10.1854 190.299 9.44909 189.246 10.0627L179.021 17.1802C178.464 17.671 178.402 18.7141 178.959 19.6345ZM172.267 31.1697C173.382 31.1697 174.312 31.7833 174.436 32.4582L175.489 44.7911C175.489 46.0183 174.064 47 172.267 47C170.47 47 169.045 46.0183 169.045 44.7911L170.16 32.4582C170.222 31.7219 171.151 31.1697 172.267 31.1697ZM178.959 27.3655C179.517 26.3838 180.446 25.8929 181.19 26.1384L192.468 31.3538C193.521 31.9674 193.707 33.6854 192.778 35.2193C191.848 36.7533 190.299 37.4896 189.246 36.876L179.021 29.8198C178.464 29.3903 178.402 28.2859 178.959 27.3655ZM165.513 27.3655C166.07 28.2859 166.008 29.3903 165.451 29.8812L155.226 36.9373C154.173 37.5509 152.562 36.8146 151.694 35.2807C150.764 33.7467 150.95 32.0287 152.004 31.4151L163.344 26.1997C164.025 25.893 165.017 26.3838 165.513 27.3655ZM194.885 35.8329H195.009C195.133 35.8329 195.256 35.7715 195.256 35.7102C195.256 35.5875 195.194 35.5875 195.071 35.5875H194.947V35.8329H194.885ZM194.885 36.3851H194.637V35.4034H195.009C195.194 35.4034 195.256 35.4034 195.38 35.4648C195.442 35.5261 195.504 35.5875 195.504 35.6488C195.504 35.7715 195.442 35.8329 195.318 35.8943C195.442 35.9556 195.504 36.017 195.504 36.1397C195.504 36.3238 195.566 36.3238 195.566 36.3851H195.318C195.256 36.3238 195.256 36.2624 195.256 36.1397C195.256 36.017 195.194 36.017 195.071 36.017H194.947L194.885 36.3851ZM195.009 35.0966C194.575 35.0966 194.265 35.4648 194.265 35.8943C194.265 36.3238 194.575 36.6919 195.009 36.6919C195.442 36.6919 195.752 36.3238 195.752 35.8943C195.814 35.4648 195.442 35.0966 195.009 35.0966ZM195.009 34.9125C195.566 34.9125 196 35.342 196 35.8943C196 36.4465 195.566 36.876 195.009 36.876C194.451 36.876 193.955 36.4465 193.955 35.8943C194.017 35.342 194.451 34.9125 195.009 34.9125Z" fill="#F2F2F2"/>
</svg>
