<svg width="22" height="22" viewBox="0 0 22 22" fill="none" xmlns="http://www.w3.org/2000/svg">
<path d="M13.7429 0.083009C13.8414 0.082833 13.939 0.102084 14.0302 0.139662C14.1213 0.177239 14.2041 0.232406 14.2739 0.302009L21.6989 7.72701C21.8395 7.86765 21.9185 8.05839 21.9185 8.25726C21.9185 8.45613 21.8395 8.64686 21.6989 8.78751C20.9789 9.50751 20.0909 9.66951 19.4444 9.66951C19.1789 9.66951 18.9419 9.64251 18.7544 9.61101L14.0534 14.312C14.1771 14.8106 14.2574 15.319 14.2934 15.8315C14.3624 16.8845 14.2454 18.362 13.2134 19.394C13.0727 19.5346 12.882 19.6136 12.6831 19.6136C12.4842 19.6136 12.2935 19.5346 12.1529 19.394L7.90936 15.152L3.13636 19.925C2.84386 20.2175 1.30786 21.278 1.01536 20.9855C0.722861 20.693 1.78336 19.1555 2.07586 18.8645L6.84886 14.0915L2.60686 9.84801C2.46626 9.70736 2.38727 9.51663 2.38727 9.31776C2.38727 9.11889 2.46626 8.92815 2.60686 8.78751C3.63886 7.75551 5.11636 7.63701 6.16936 7.70751C6.68185 7.74342 7.19025 7.82372 7.68886 7.94751L12.3899 3.24801C12.3506 3.01958 12.3306 2.78828 12.3299 2.55651C12.3299 1.91151 12.4919 1.02351 13.2134 0.302009C13.3539 0.161806 13.5443 0.0830512 13.7429 0.083009Z" fill="white"/>
</svg>
