<svg width="22" height="21" viewBox="0 0 22 21" fill="none" xmlns="http://www.w3.org/2000/svg">
<path d="M16.916 4.97C17.8701 5.9496 18.5655 7.15119 18.9395 8.4665H21.5V12.968H18.9395C18.5659 14.2844 17.8705 15.487 16.916 16.4675L18.1985 18.6875L14.3015 20.9375L13.022 18.7175C11.6953 19.0521 10.3062 19.0521 8.9795 18.7175L7.6985 20.9375L3.8015 18.6875L5.084 16.4675C4.12948 15.487 3.43406 14.2844 3.0605 12.968H0.5V8.468H3.0605C3.43406 7.15162 4.12948 5.94895 5.084 4.9685L3.8 2.75L7.6955 0.5H7.7L8.981 2.717C10.3077 2.38238 11.6968 2.38238 13.0235 2.717L14.3 0.5H14.303L18.2 2.75L16.9175 4.97H16.916ZM15.5 10.718C15.5 9.52453 15.0259 8.37993 14.182 7.53602C13.3381 6.69211 12.1935 6.218 11 6.218C9.80653 6.218 8.66193 6.69211 7.81802 7.53602C6.97411 8.37993 6.5 9.52453 6.5 10.718C6.5 11.9115 6.97411 13.0561 7.81802 13.9C8.66193 14.7439 9.80653 15.218 11 15.218C12.1935 15.218 13.3381 14.7439 14.182 13.9C15.0259 13.0561 15.5 11.9115 15.5 10.718Z" fill="white"/>
</svg>
