<svg width="175" height="47" viewBox="0 0 175 47" fill="none" xmlns="http://www.w3.org/2000/svg">
<path d="M116.436 0H109.067V41.1981C115.764 41.4285 122.433 41.7666 129.075 42.209V34.9505C124.873 34.6703 120.66 34.4333 116.436 34.2365V0ZM175 0.00430973H166.905L161.569 12.3675L156.775 0.00430973H148.802L157.37 22.0955L148.017 43.7677C150.604 44.0201 153.184 44.2892 155.762 44.5736L161.202 31.9725L166.59 45.8632C169.396 46.2238 172.194 46.6002 174.988 46.999L175 46.9943L165.4 22.2449L175 0.00430973ZM83.7704 40.838L91.14 40.8366V24.0785H101.13V16.8199H91.14V7.32846H104.343V0.00478859H83.7704V40.838ZM56.2514 7.32798H63.9645V41.2695C66.4167 41.1771 68.8737 41.1009 71.3336 41.0368V7.32798H79.0461V0.00430973H56.2514V7.32798ZM31.0572 43.3793C37.8495 42.7626 44.673 42.254 51.5271 41.8594V34.5999C47.1477 34.8533 42.7808 35.1526 38.4268 35.4949V24.5061C41.2838 24.4778 45.0457 24.3907 48.3784 24.4319V17.1728C45.7159 17.1666 41.4366 17.2102 38.4268 17.2485V7.32846H51.5271V0.00478859H31.0572V43.3793ZM16.6017 26.5992L7.00358 0.00430973H0V47C2.45173 46.6509 4.90826 46.3171 7.36957 45.9963V20.4406L15.9037 44.9471C18.5878 44.6359 21.2766 44.3414 23.9712 44.0641V0.00430973H16.6017V26.5992ZM135.15 42.6462C137.61 42.8344 140.066 43.036 142.52 43.2544V0.00430973H135.15V42.6462Z" fill="#F2F2F2"/>
</svg>
