<svg width="162" height="48" viewBox="0 0 162 48" fill="none" xmlns="http://www.w3.org/2000/svg">
<path d="M70.872 17.432C70.872 18.328 70.656 19.168 70.224 19.952C69.808 20.736 69.144 21.368 68.232 21.848C67.336 22.328 66.2 22.568 64.824 22.568H62.016V29H58.656V12.248H64.824C66.12 12.248 67.224 12.472 68.136 12.92C69.048 13.368 69.728 13.984 70.176 14.768C70.64 15.552 70.872 16.44 70.872 17.432ZM64.68 19.856C65.608 19.856 66.296 19.648 66.744 19.232C67.192 18.8 67.416 18.2 67.416 17.432C67.416 15.8 66.504 14.984 64.68 14.984H62.016V19.856H64.68ZM79.1616 29.216C77.8816 29.216 76.7296 28.936 75.7056 28.376C74.6816 27.8 73.8736 26.992 73.2816 25.952C72.7056 24.912 72.4176 23.712 72.4176 22.352C72.4176 20.992 72.7136 19.792 73.3056 18.752C73.9136 17.712 74.7376 16.912 75.7776 16.352C76.8176 15.776 77.9776 15.488 79.2576 15.488C80.5376 15.488 81.6976 15.776 82.7376 16.352C83.7776 16.912 84.5936 17.712 85.1856 18.752C85.7936 19.792 86.0976 20.992 86.0976 22.352C86.0976 23.712 85.7856 24.912 85.1616 25.952C84.5536 26.992 83.7216 27.8 82.6656 28.376C81.6256 28.936 80.4576 29.216 79.1616 29.216ZM79.1616 26.288C79.7696 26.288 80.3376 26.144 80.8656 25.856C81.4096 25.552 81.8416 25.104 82.1616 24.512C82.4816 23.92 82.6416 23.2 82.6416 22.352C82.6416 21.088 82.3056 20.12 81.6336 19.448C80.9776 18.76 80.1696 18.416 79.2096 18.416C78.2496 18.416 77.4416 18.76 76.7856 19.448C76.1456 20.12 75.8256 21.088 75.8256 22.352C75.8256 23.616 76.1376 24.592 76.7616 25.28C77.4016 25.952 78.2016 26.288 79.1616 26.288ZM91.9223 17.768C92.3543 17.064 92.9143 16.512 93.6023 16.112C94.3063 15.712 95.1063 15.512 96.0023 15.512V19.04H95.1143C94.0583 19.04 93.2583 19.288 92.7143 19.784C92.1863 20.28 91.9223 21.144 91.9223 22.376V29H88.5623V15.704H91.9223V17.768ZM102.177 18.464V24.896C102.177 25.344 102.281 25.672 102.489 25.88C102.713 26.072 103.081 26.168 103.593 26.168H105.153V29H103.041C100.209 29 98.7934 27.624 98.7934 24.872V18.464H97.2094V15.704H98.7934V12.416H102.177V15.704H105.153V18.464H102.177ZM117.914 12.248V14.96H110.93V19.256H116.282V21.92H110.93V29H107.57V12.248H117.914ZM126.201 29.216C124.921 29.216 123.769 28.936 122.745 28.376C121.721 27.8 120.913 26.992 120.321 25.952C119.745 24.912 119.457 23.712 119.457 22.352C119.457 20.992 119.753 19.792 120.345 18.752C120.953 17.712 121.777 16.912 122.817 16.352C123.857 15.776 125.017 15.488 126.297 15.488C127.577 15.488 128.737 15.776 129.777 16.352C130.817 16.912 131.633 17.712 132.225 18.752C132.833 19.792 133.137 20.992 133.137 22.352C133.137 23.712 132.825 24.912 132.201 25.952C131.593 26.992 130.761 27.8 129.705 28.376C128.665 28.936 127.497 29.216 126.201 29.216ZM126.201 26.288C126.809 26.288 127.377 26.144 127.905 25.856C128.449 25.552 128.881 25.104 129.201 24.512C129.521 23.92 129.681 23.2 129.681 22.352C129.681 21.088 129.345 20.12 128.673 19.448C128.017 18.76 127.209 18.416 126.249 18.416C125.289 18.416 124.481 18.76 123.825 19.448C123.185 20.12 122.865 21.088 122.865 22.352C122.865 23.616 123.177 24.592 123.801 25.28C124.441 25.952 125.241 26.288 126.201 26.288ZM138.961 11.24V29H135.601V11.24H138.961ZM143.985 14.12C143.393 14.12 142.897 13.936 142.497 13.568C142.113 13.184 141.921 12.712 141.921 12.152C141.921 11.592 142.113 11.128 142.497 10.76C142.897 10.376 143.393 10.184 143.985 10.184C144.577 10.184 145.065 10.376 145.449 10.76C145.849 11.128 146.049 11.592 146.049 12.152C146.049 12.712 145.849 13.184 145.449 13.568C145.065 13.936 144.577 14.12 143.985 14.12ZM145.641 15.704V29H142.281V15.704H145.641ZM148.097 22.304C148.097 20.96 148.361 19.768 148.889 18.728C149.433 17.688 150.161 16.888 151.073 16.328C152.001 15.768 153.033 15.488 154.169 15.488C155.161 15.488 156.025 15.688 156.761 16.088C157.513 16.488 158.113 16.992 158.561 17.6V15.704H161.945V29H158.561V27.056C158.129 27.68 157.529 28.2 156.761 28.616C156.009 29.016 155.137 29.216 154.145 29.216C153.025 29.216 152.001 28.928 151.073 28.352C150.161 27.776 149.433 26.968 148.889 25.928C148.361 24.872 148.097 23.664 148.097 22.304ZM158.561 22.352C158.561 21.536 158.401 20.84 158.081 20.264C157.761 19.672 157.329 19.224 156.785 18.92C156.241 18.6 155.657 18.44 155.033 18.44C154.409 18.44 153.833 18.592 153.305 18.896C152.777 19.2 152.345 19.648 152.009 20.24C151.689 20.816 151.529 21.504 151.529 22.304C151.529 23.104 151.689 23.808 152.009 24.416C152.345 25.008 152.777 25.464 153.305 25.784C153.849 26.104 154.425 26.264 155.033 26.264C155.657 26.264 156.241 26.112 156.785 25.808C157.329 25.488 157.761 25.04 158.081 24.464C158.401 23.872 158.561 23.168 158.561 22.352Z" fill="#3876D0"/>
<circle cx="22.5" cy="22.5" r="21.5" stroke="#3876D0" stroke-width="2"/>
<path d="M28.1108 20.302C28.1108 21.1165 27.9144 21.8802 27.5217 22.5929C27.1435 23.3056 26.5399 23.8802 25.7108 24.3165C24.8962 24.7529 23.8635 24.9711 22.6126 24.9711H20.0599V30.8184H17.0053V15.5893H22.6126C23.7908 15.5893 24.7944 15.7929 25.6235 16.2002C26.4526 16.6074 27.0708 17.1674 27.4781 17.8802C27.8999 18.5929 28.1108 19.4002 28.1108 20.302ZM22.4817 22.5056C23.3253 22.5056 23.9508 22.3165 24.3581 21.9384C24.7653 21.5456 24.969 21.0002 24.969 20.302C24.969 18.8184 24.1399 18.0765 22.4817 18.0765H20.0599V22.5056H22.4817Z" fill="#3876D0"/>
</svg>
