<svg width="32" height="34" viewBox="0 0 32 34" fill="none" xmlns="http://www.w3.org/2000/svg">
<circle cx="15.9627" cy="15.9627" r="15.2533" stroke="#3876D0" stroke-width="1.41891"/>
<path d="M19.9434 14.376C19.9434 14.9539 19.8041 15.4957 19.5255 16.0013C19.2572 16.507 18.8289 16.9146 18.2407 17.2242C17.6628 17.5337 16.9301 17.6885 16.0427 17.6885H14.2316V21.8369H12.0646V11.0326H16.0427C16.8785 11.0326 17.5906 11.177 18.1788 11.466C18.767 11.7549 19.2056 12.1522 19.4945 12.6579C19.7938 13.1635 19.9434 13.7362 19.9434 14.376ZM15.9498 15.9394C16.5483 15.9394 16.9921 15.8053 17.281 15.537C17.5699 15.2583 17.7144 14.8714 17.7144 14.376C17.7144 13.3235 17.1262 12.7972 15.9498 12.7972H14.2316V15.9394H15.9498Z" fill="#3876D0"/>
</svg>
