<svg width="50" height="32" viewBox="0 0 100 32" fill="none" xmlns="http://www.w3.org/2000/svg">
<path d="M19 16H5" stroke="#232323" stroke-width="2" stroke-linecap="round" stroke-linejoin="round"/>
<path d="M12 23L5 16L12 9" stroke="#232323" stroke-width="2" stroke-linecap="round" stroke-linejoin="round"/>
<path d="M43.928 15.948C44.6373 16.06 45.2813 16.3493 45.86 16.816C46.4573 17.2827 46.924 17.8613 47.26 18.552C47.6147 19.2427 47.792 19.98 47.792 20.764C47.792 21.7533 47.54 22.6493 47.036 23.452C46.532 24.236 45.7947 24.8613 44.824 25.328C43.872 25.776 42.7427 26 41.436 26H34.156V6.484H41.156C42.4813 6.484 43.6107 6.708 44.544 7.156C45.4773 7.58533 46.1773 8.17333 46.644 8.92C47.1107 9.66667 47.344 10.5067 47.344 11.44C47.344 12.5973 47.0267 13.5587 46.392 14.324C45.776 15.0707 44.9547 15.612 43.928 15.948ZM36.704 14.912H40.988C42.1827 14.912 43.1067 14.632 43.76 14.072C44.4133 13.512 44.74 12.7373 44.74 11.748C44.74 10.7587 44.4133 9.984 43.76 9.424C43.1067 8.864 42.164 8.584 40.932 8.584H36.704V14.912ZM41.212 23.9C42.4813 23.9 43.4707 23.6013 44.18 23.004C44.8893 22.4067 45.244 21.576 45.244 20.512C45.244 19.4293 44.8707 18.58 44.124 17.964C43.3773 17.3293 42.3787 17.012 41.128 17.012H36.704V23.9H41.212ZM50.3759 18.272C50.3759 16.704 50.6932 15.332 51.3279 14.156C51.9625 12.9613 52.8305 12.0373 53.9319 11.384C55.0519 10.7307 56.2932 10.404 57.6559 10.404C58.9999 10.404 60.1665 10.6933 61.1559 11.272C62.1452 11.8507 62.8825 12.5787 63.3679 13.456V10.656H65.9439V26H63.3679V23.144C62.8639 24.04 62.1079 24.7867 61.0999 25.384C60.1105 25.9627 58.9532 26.252 57.6279 26.252C56.2652 26.252 55.0332 25.916 53.9319 25.244C52.8305 24.572 51.9625 23.6293 51.3279 22.416C50.6932 21.2027 50.3759 19.8213 50.3759 18.272ZM63.3679 18.3C63.3679 17.1427 63.1345 16.1347 62.6679 15.276C62.2012 14.4173 61.5665 13.764 60.7639 13.316C59.9799 12.8493 59.1119 12.616 58.1599 12.616C57.2079 12.616 56.3399 12.84 55.5559 13.288C54.7719 13.736 54.1465 14.3893 53.6799 15.248C53.2132 16.1067 52.9799 17.1147 52.9799 18.272C52.9799 19.448 53.2132 20.4747 53.6799 21.352C54.1465 22.2107 54.7719 22.8733 55.5559 23.34C56.3399 23.788 57.2079 24.012 58.1599 24.012C59.1119 24.012 59.9799 23.788 60.7639 23.34C61.5665 22.8733 62.2012 22.2107 62.6679 21.352C63.1345 20.4747 63.3679 19.4573 63.3679 18.3ZM69.2978 18.3C69.2978 16.7133 69.6151 15.332 70.2498 14.156C70.8844 12.9613 71.7618 12.0373 72.8818 11.384C74.0204 10.7307 75.3178 10.404 76.7738 10.404C78.6591 10.404 80.2084 10.8613 81.4218 11.776C82.6538 12.6907 83.4658 13.96 83.8578 15.584H81.1138C80.8524 14.6507 80.3391 13.9133 79.5738 13.372C78.8271 12.8307 77.8938 12.56 76.7738 12.56C75.3178 12.56 74.1418 13.064 73.2458 14.072C72.3498 15.0613 71.9018 16.4707 71.9018 18.3C71.9018 20.148 72.3498 21.576 73.2458 22.584C74.1418 23.592 75.3178 24.096 76.7738 24.096C77.8938 24.096 78.8271 23.8347 79.5738 23.312C80.3204 22.7893 80.8338 22.0427 81.1138 21.072H83.8578C83.4471 22.64 82.6258 23.9 81.3938 24.852C80.1618 25.7853 78.6218 26.252 76.7738 26.252C75.3178 26.252 74.0204 25.9253 72.8818 25.272C71.7618 24.6187 70.8844 23.6947 70.2498 22.5C69.6151 21.3053 69.2978 19.9053 69.2978 18.3ZM95.8256 26L89.8056 19.224V26H87.2576V5.28H89.8056V17.46L95.7136 10.656H99.2696L92.0456 18.3L99.2976 26H95.8256Z" fill="#232323"/>
</svg>
