<svg width="32" height="32" viewBox="0 0 32 32" fill="none" xmlns="http://www.w3.org/2000/svg">
<path d="M29.3346 16.0003C29.3346 8.63633 23.3653 2.66699 16.0013 2.66699C8.6373 2.66699 2.66797 8.63633 2.66797 16.0003C2.66797 23.3643 8.6373 29.3337 16.0013 29.3337" stroke="black" stroke-opacity="0.9" stroke-width="1.5" stroke-linecap="round" stroke-linejoin="round"/>
<path d="M3.50781 11.3334H28.4945M17.3345 2.7334C17.3345 2.7334 21.3345 8.00006 21.3345 16.0001L17.3345 2.7334ZM14.6678 29.2667C14.6678 29.2667 10.6678 24.0001 10.6678 16.0001C10.6678 8.00006 14.6678 2.7334 14.6678 2.7334V29.2667ZM3.50781 20.6667H16.0011H3.50781Z" stroke="black" stroke-opacity="0.9" stroke-width="1.5" stroke-linecap="round" stroke-linejoin="round"/>
<path d="M29.1723 23.8898C29.8309 24.2952 29.7896 25.2805 29.1123 25.3578L25.6896 25.7458L24.1549 28.8285C23.8509 29.4405 22.9109 29.1405 22.7549 28.3832L21.0816 20.2285C20.9496 19.5885 21.5256 19.1858 22.0816 19.5285L29.1723 23.8898V23.8898Z" stroke="black" stroke-opacity="0.9" stroke-width="1.5"/>
</svg>
