<svg width="24" height="24" viewBox="0 0 24 24" fill="none" xmlns="http://www.w3.org/2000/svg">
<path d="M13.0898 18.6673V7.11176L21.8171 5.33398V16.8895" stroke="white" stroke-width="2" stroke-linecap="round" stroke-linejoin="round"/>
<path d="M10.9084 21.3333C12.1134 21.3333 13.0902 20.1394 13.0902 18.6667C13.0902 17.1939 12.1134 16 10.9084 16C9.7034 16 8.72656 17.1939 8.72656 18.6667C8.72656 20.1394 9.7034 21.3333 10.9084 21.3333Z" stroke="white" stroke-width="2" stroke-linecap="round" stroke-linejoin="round"/>
<path d="M19.6349 19.556C20.8399 19.556 21.8168 18.3621 21.8168 16.8893C21.8168 15.4166 20.8399 14.2227 19.6349 14.2227C18.43 14.2227 17.4531 15.4166 17.4531 16.8893C17.4531 18.3621 18.43 19.556 19.6349 19.556Z" stroke="white" stroke-width="2" stroke-linecap="round" stroke-linejoin="round"/>
<g clip-path="url(#clip0_1090_5312)">
<path d="M12.5449 12.6667C12.5449 13.0203 12.43 13.3594 12.2254 13.6095C12.0208 13.8595 11.7433 14 11.454 14H1.63583C1.3465 14 1.06903 13.8595 0.864442 13.6095C0.659857 13.3594 0.544922 13.0203 0.544922 12.6667V5.33333C0.544922 4.97971 0.659857 4.64057 0.864442 4.39052C1.06903 4.14048 1.3465 4 1.63583 4H3.81765L4.90856 2H8.18129L9.27219 4H11.454C11.7433 4 12.0208 4.14048 12.2254 4.39052C12.43 4.64057 12.5449 4.97971 12.5449 5.33333V12.6667Z" stroke="white" stroke-width="2" stroke-linecap="round" stroke-linejoin="round"/>
<path d="M6.5451 11.3333C7.75008 11.3333 8.72692 10.1394 8.72692 8.66667C8.72692 7.19391 7.75008 6 6.5451 6C5.34011 6 4.36328 7.19391 4.36328 8.66667C4.36328 10.1394 5.34011 11.3333 6.5451 11.3333Z" stroke="white" stroke-width="2" stroke-linecap="round" stroke-linejoin="round"/>
</g>
<defs>
<clipPath id="clip0_1090_5312">
<rect width="13.0909" height="16" fill="white"/>
</clipPath>
</defs>
</svg>
