<svg width="16" height="22" viewBox="0 0 16 22" fill="none" xmlns="http://www.w3.org/2000/svg">
<path d="M15.7479 10.8774L12.8282 9.71866L15.1802 3.79366C15.2301 3.66778 15.2547 3.53331 15.2527 3.39791C15.2507 3.26251 15.222 3.12884 15.1683 3.00452C15.1146 2.88021 15.0369 2.76769 14.9398 2.67338C14.8426 2.57908 14.7278 2.50484 14.6019 2.45491C14.476 2.40497 14.3416 2.38032 14.2062 2.38235C14.0708 2.38439 13.9371 2.41307 13.8128 2.46677C13.6885 2.52046 13.5759 2.59812 13.4816 2.6953C13.3873 2.79248 13.3131 2.90728 13.2632 3.03316L10.9112 8.95816L7.2504 7.50541L9.6024 1.58041C9.69801 1.32743 9.69042 1.04701 9.58126 0.799575C9.4721 0.552139 9.27011 0.357487 9.01881 0.257555C8.7675 0.157623 8.487 0.16041 8.23773 0.265316C7.98846 0.370222 7.79037 0.568849 7.68615 0.818406L5.3349 6.74341L2.4174 5.58616L1.20615 8.63641L2.81865 9.27691L0.915901 14.0709C0.696257 14.6257 0.705825 15.245 0.942502 15.7927C1.17918 16.3405 1.62361 16.7719 2.17815 16.9922L3.39765 17.4767L2.7399 19.1319C2.59335 19.5017 2.59968 19.9145 2.75748 20.2797C2.91529 20.6448 3.21165 20.9323 3.5814 21.0789L4.2789 21.3564C4.6487 21.5027 5.06146 21.4963 5.42653 21.3385C5.79159 21.1808 6.0791 20.8845 6.2259 20.5149L6.88365 18.8597L8.27715 19.4124C8.83194 19.6323 9.45135 19.623 9.99925 19.3864C10.5472 19.1499 10.9787 18.7055 11.1992 18.1509L13.1004 13.3584L14.5381 13.9284L15.7479 10.8789V10.8774Z" fill="white"/>
</svg>
