<svg width="107" height="36" viewBox="0 0 162 48" fill="none" xmlns="http://www.w3.org/2000/svg">
<path d="M61.92 22.712V29H58.536V12.056H64.704C66.704 12.056 68.208 12.536 69.216 13.496C70.24 14.456 70.752 15.76 70.752 17.408C70.752 19.024 70.224 20.312 69.168 21.272C68.128 22.232 66.64 22.712 64.704 22.712H61.92ZM64.344 20C66.328 20 67.32 19.136 67.32 17.408C67.32 16.56 67.088 15.912 66.624 15.464C66.16 15.016 65.4 14.792 64.344 14.792H61.92V20H64.344ZM79.0941 15.536C80.3901 15.536 81.5501 15.808 82.5741 16.352C83.6141 16.896 84.4301 17.688 85.0221 18.728C85.6141 19.752 85.9101 20.96 85.9101 22.352C85.9101 23.744 85.6141 24.952 85.0221 25.976C84.4301 27 83.6141 27.792 82.5741 28.352C81.5501 28.896 80.3901 29.168 79.0941 29.168C77.7981 29.168 76.6301 28.896 75.5901 28.352C74.5661 27.792 73.7581 27 73.1661 25.976C72.5741 24.952 72.2781 23.744 72.2781 22.352C72.2781 20.96 72.5741 19.752 73.1661 18.728C73.7581 17.688 74.5661 16.896 75.5901 16.352C76.6301 15.808 77.7981 15.536 79.0941 15.536ZM79.0941 18.464C78.1501 18.464 77.3501 18.8 76.6941 19.472C76.0381 20.128 75.7101 21.088 75.7101 22.352C75.7101 23.616 76.0381 24.584 76.6941 25.256C77.3501 25.912 78.1501 26.24 79.0941 26.24C80.0381 26.24 80.8381 25.912 81.4941 25.256C82.1501 24.584 82.4781 23.616 82.4781 22.352C82.4781 21.088 82.1501 20.128 81.4941 19.472C80.8381 18.8 80.0381 18.464 79.0941 18.464ZM91.6856 18.248C92.1816 17.4 92.8376 16.736 93.6536 16.256C94.4696 15.76 95.3816 15.512 96.3896 15.512V19.136H95.4056C92.9256 19.136 91.6856 20.288 91.6856 22.592V29H88.3016V15.704H91.6856V18.248ZM105.367 26.096V29H103.591C102.103 29 100.959 28.64 100.159 27.92C99.3746 27.2 98.9826 26 98.9826 24.32V18.56H97.1346V15.704H98.9826V12.416H102.367V15.704H105.343V18.56H102.367V24.368C102.367 25.008 102.495 25.456 102.751 25.712C103.007 25.968 103.439 26.096 104.047 26.096H105.367ZM118.314 12.056V14.744H111.186V19.28H116.898V21.872H111.186V29H107.802V12.056H118.314ZM126.743 15.536C128.039 15.536 129.199 15.808 130.223 16.352C131.263 16.896 132.079 17.688 132.671 18.728C133.263 19.752 133.559 20.96 133.559 22.352C133.559 23.744 133.263 24.952 132.671 25.976C132.079 27 131.263 27.792 130.223 28.352C129.199 28.896 128.039 29.168 126.743 29.168C125.447 29.168 124.279 28.896 123.239 28.352C122.215 27.792 121.407 27 120.815 25.976C120.223 24.952 119.927 23.744 119.927 22.352C119.927 20.96 120.223 19.752 120.815 18.728C121.407 17.688 122.215 16.896 123.239 16.352C124.279 15.808 125.447 15.536 126.743 15.536ZM126.743 18.464C125.799 18.464 124.999 18.8 124.343 19.472C123.687 20.128 123.359 21.088 123.359 22.352C123.359 23.616 123.687 24.584 124.343 25.256C124.999 25.912 125.799 26.24 126.743 26.24C127.687 26.24 128.487 25.912 129.143 25.256C129.799 24.584 130.127 23.616 130.127 22.352C130.127 21.088 129.799 20.128 129.143 19.472C128.487 18.8 127.687 18.464 126.743 18.464ZM139.334 11.24V29H135.95V11.24H139.334ZM142.011 11.888C142.011 11.344 142.203 10.904 142.587 10.568C142.971 10.216 143.475 10.04 144.099 10.04C144.723 10.04 145.227 10.216 145.611 10.568C145.995 10.904 146.187 11.344 146.187 11.888C146.187 12.416 145.995 12.856 145.611 13.208C145.227 13.544 144.723 13.712 144.099 13.712C143.475 13.712 142.971 13.544 142.587 13.208C142.203 12.856 142.011 12.416 142.011 11.888ZM145.779 15.704V29H142.395V15.704H145.779ZM154.049 15.536C155.169 15.536 156.129 15.8 156.929 16.328C157.729 16.856 158.297 17.568 158.633 18.464V15.704H161.993V29H158.633V26.216C158.297 27.112 157.729 27.832 156.929 28.376C156.129 28.904 155.169 29.168 154.049 29.168C152.929 29.168 151.921 28.896 151.025 28.352C150.129 27.808 149.425 27.024 148.913 26C148.417 24.96 148.169 23.744 148.169 22.352C148.169 20.96 148.417 19.752 148.913 18.728C149.425 17.688 150.129 16.896 151.025 16.352C151.921 15.808 152.929 15.536 154.049 15.536ZM155.105 18.488C154.049 18.488 153.201 18.832 152.561 19.52C151.921 20.208 151.601 21.152 151.601 22.352C151.601 23.552 151.921 24.496 152.561 25.184C153.201 25.856 154.049 26.192 155.105 26.192C156.129 26.192 156.969 25.848 157.625 25.16C158.297 24.456 158.633 23.52 158.633 22.352C158.633 21.168 158.297 20.232 157.625 19.544C156.969 18.84 156.129 18.488 155.105 18.488Z" fill="#4F5251"/>
<circle cx="22.5" cy="22.5" r="21.5" stroke="#4F5251" stroke-width="2"/>
<path d="M19.9727 25.102V30.8184H16.8964V15.4147H22.5036C24.3218 15.4147 25.6891 15.8511 26.6055 16.7238C27.5364 17.5965 28.0018 18.782 28.0018 20.2802C28.0018 21.7493 27.5218 22.9202 26.5618 23.7929C25.6164 24.6656 24.2636 25.102 22.5036 25.102H19.9727ZM22.1764 22.6365C23.98 22.6365 24.8818 21.8511 24.8818 20.2802C24.8818 19.5093 24.6709 18.9202 24.2491 18.5129C23.8273 18.1056 23.1364 17.902 22.1764 17.902H19.9727V22.6365H22.1764Z" fill="#4F5251"/>
</svg>

