<svg width="22" height="28" viewBox="0 0 22 28" fill="none" xmlns="http://www.w3.org/2000/svg">
<path d="M5.66732 10.0003C5.66732 10.3539 5.80779 10.6931 6.05784 10.9431C6.30789 11.1932 6.64703 11.3337 7.00065 11.3337H15.0007C15.3543 11.3337 15.6934 11.1932 15.9435 10.9431C16.1935 10.6931 16.334 10.3539 16.334 10.0003C16.334 9.6467 16.1935 9.30756 15.9435 9.05752C15.6934 8.80747 15.3543 8.66699 15.0007 8.66699H7.00065C6.64703 8.66699 6.30789 8.80747 6.05784 9.05752C5.80779 9.30756 5.66732 9.6467 5.66732 10.0003ZM7.00065 16.667C6.64703 16.667 6.30789 16.5265 6.05784 16.2765C5.80779 16.0264 5.66732 15.6873 5.66732 15.3337C5.66732 14.98 5.80779 14.6409 6.05784 14.3908C6.30789 14.1408 6.64703 14.0003 7.00065 14.0003H15.0007C15.3543 14.0003 15.6934 14.1408 15.9435 14.3908C16.1935 14.6409 16.334 14.98 16.334 15.3337C16.334 15.6873 16.1935 16.0264 15.9435 16.2765C15.6934 16.5265 15.3543 16.667 15.0007 16.667H7.00065ZM5.66732 20.667C5.66732 21.0206 5.80779 21.3598 6.05784 21.6098C6.30789 21.8598 6.64703 22.0003 7.00065 22.0003H9.66732C10.0209 22.0003 10.3601 21.8598 10.6101 21.6098C10.8602 21.3598 11.0007 21.0206 11.0007 20.667C11.0007 20.3134 10.8602 19.9742 10.6101 19.7242C10.3601 19.4741 10.0209 19.3337 9.66732 19.3337H7.00065C6.64703 19.3337 6.30789 19.4741 6.05784 19.7242C5.80779 19.9742 5.66732 20.3134 5.66732 20.667ZM5.66732 2.00033C5.66732 1.6467 5.80779 1.30756 6.05784 1.05752C6.30789 0.807468 6.64703 0.666992 7.00065 0.666992C7.35427 0.666992 7.69341 0.807468 7.94346 1.05752C8.19351 1.30756 8.33398 1.6467 8.33398 2.00033V3.33366H13.6673V2.00033C13.6673 1.6467 13.8078 1.30756 14.0578 1.05752C14.3079 0.807468 14.647 0.666992 15.0007 0.666992C15.3543 0.666992 15.6934 0.807468 15.9435 1.05752C16.1935 1.30756 16.334 1.6467 16.334 2.00033V3.33366C17.7485 3.33366 19.105 3.89556 20.1052 4.89576C21.1054 5.89595 21.6673 7.2525 21.6673 8.66699V19.3337L13.6673 27.3337H5.66732C4.25283 27.3337 2.89628 26.7718 1.89608 25.7716C0.895887 24.7714 0.333984 23.4148 0.333984 22.0003V8.66699C0.333984 7.2525 0.895887 5.89595 1.89608 4.89576C2.89628 3.89556 4.25283 3.33366 5.66732 3.33366V2.00033ZM13.6673 24.667V20.667C13.6673 20.3134 13.8078 19.9742 14.0578 19.7242C14.3079 19.4741 14.647 19.3337 15.0007 19.3337H19.0007V8.66699C19.0007 7.95975 18.7197 7.28147 18.2196 6.78137C17.7195 6.28128 17.0412 6.00033 16.334 6.00033H5.66732C4.96007 6.00033 4.2818 6.28128 3.7817 6.78137C3.2816 7.28147 3.00065 7.95975 3.00065 8.66699V22.0003C3.00065 22.7076 3.2816 23.3858 3.7817 23.8859C4.2818 24.386 4.96007 24.667 5.66732 24.667H13.6673Z" fill="black" fill-opacity="0.9"/>
</svg>
