<svg width="32" height="24" viewBox="0 0 32 24" fill="none" xmlns="http://www.w3.org/2000/svg">
<path d="M27 2C27.2652 2 27.5196 2.10536 27.7071 2.29289C27.8946 2.48043 28 2.73478 28 3V18H4V3C4 2.73478 4.10536 2.48043 4.29289 2.29289C4.48043 2.10536 4.73478 2 5 2H27ZM5 0C4.20435 0 3.44129 0.316071 2.87868 0.87868C2.31607 1.44129 2 2.20435 2 3V20H30V3C30 2.20435 29.6839 1.44129 29.1213 0.87868C28.5587 0.316071 27.7956 0 27 0H5ZM0 21H32C32 21.7956 31.6839 22.5587 31.1213 23.1213C30.5587 23.6839 29.7956 24 29 24H3C2.20435 24 1.44129 23.6839 0.87868 23.1213C0.31607 22.5587 0 21.7956 0 21H0Z" fill="black" fill-opacity="0.9"/>
</svg>
