<svg width="21" height="29" viewBox="0 0 21 29" fill="none" xmlns="http://www.w3.org/2000/svg">
<path d="M20.3305 14.8362L16.4375 13.2912L19.5735 5.39122C19.6401 5.22339 19.673 5.04409 19.6703 4.86355C19.6676 4.68302 19.6293 4.50479 19.5577 4.33904C19.4861 4.17328 19.3826 4.02326 19.253 3.89752C19.1234 3.77178 18.9704 3.6728 18.8025 3.60622C18.6347 3.53963 18.4554 3.50676 18.2749 3.50948C18.0943 3.51219 17.9161 3.55044 17.7504 3.62203C17.5846 3.69362 17.4346 3.79716 17.3088 3.92674C17.1831 4.05631 17.0841 4.20939 17.0175 4.37722L13.8815 12.2772L9.00054 10.3402L12.1365 2.44022C12.264 2.10291 12.2539 1.72902 12.1083 1.39911C11.9628 1.06919 11.6935 0.809657 11.3584 0.676414C11.0233 0.543172 10.6493 0.546888 10.317 0.686762C9.98461 0.826637 9.7205 1.09147 9.58154 1.42422L6.44653 9.32422L2.55653 7.78122L0.941535 11.8482L3.09153 12.7022L0.554534 19.0942C0.261677 19.8339 0.274433 20.6597 0.590002 21.39C0.905571 22.1203 1.49814 22.6955 2.23753 22.9892L3.86353 23.6352L2.98653 25.8422C2.79114 26.3353 2.79957 26.8857 3.00998 27.3726C3.22038 27.8594 3.61554 28.2427 4.10853 28.4382L5.03853 28.8082C5.5316 29.0033 6.08195 28.9948 6.56871 28.7844C7.05546 28.574 7.4388 28.179 7.63453 27.6862L8.51153 25.4792L10.3695 26.2162C11.1093 26.5094 11.9351 26.497 12.6657 26.1816C13.3962 25.8662 13.9717 25.2737 14.2655 24.5342L16.8005 18.1442L18.7175 18.9042L20.3305 14.8382V14.8362Z" fill="black" fill-opacity="0.9"/>
</svg>
