<svg width="24" height="24" viewBox="0 0 24 24" fill="none" xmlns="http://www.w3.org/2000/svg">
<path d="M21.3333 0H2.66667C1.196 0 0 1.196 0 2.66667V21.3333C0 22.804 1.196 24 2.66667 24H13.3333C13.5085 24.0003 13.6819 23.9659 13.8437 23.8988C14.0055 23.8318 14.1524 23.7334 14.276 23.6093L23.6093 14.276C23.719 14.1623 23.8075 14.03 23.8707 13.8853C23.8893 13.8453 23.9 13.804 23.9147 13.7613C23.9526 13.6498 23.9755 13.5336 23.9827 13.416C23.9853 13.388 24 13.3613 24 13.3333V2.66667C24 1.196 22.804 0 21.3333 0ZM2.66667 2.66667H21.3333V12H13.3333C12.9797 12 12.6406 12.1405 12.3905 12.3905C12.1405 12.6406 12 12.9797 12 13.3333V21.3333H2.66667V2.66667ZM14.6667 19.448V14.6667H19.448L14.6667 19.448Z" fill="black" fill-opacity="0.9"/>
</svg>
