<svg width="32" height="32" viewBox="0 0 32 32" fill="none" xmlns="http://www.w3.org/2000/svg">
<path d="M26.3305 15.8362L22.4375 14.2912L25.5735 6.39122C25.6401 6.22339 25.673 6.04409 25.6703 5.86355C25.6676 5.68302 25.6293 5.50479 25.5577 5.33904C25.4861 5.17328 25.3826 5.02326 25.253 4.89752C25.1234 4.77178 24.9704 4.6728 24.8025 4.60622C24.6347 4.53963 24.4554 4.50676 24.2749 4.50948C24.0943 4.51219 23.9161 4.55044 23.7504 4.62203C23.5846 4.69362 23.4346 4.79716 23.3088 4.92674C23.1831 5.05631 23.0841 5.20939 23.0175 5.37722L19.8815 13.2772L15.0005 11.3402L18.1365 3.44022C18.264 3.10291 18.2539 2.72902 18.1083 2.39911C17.9628 2.06919 17.6935 1.80966 17.3584 1.67641C17.0233 1.54317 16.6493 1.54689 16.317 1.68676C15.9846 1.82664 15.7205 2.09147 15.5815 2.42422L12.4465 10.3242L8.55653 8.78122L6.94153 12.8482L9.09153 13.7022L6.55453 20.0942C6.26168 20.8339 6.27443 21.6597 6.59 22.39C6.90557 23.1203 7.49814 23.6955 8.23753 23.9892L9.86353 24.6352L8.98653 26.8422C8.79114 27.3353 8.79957 27.8857 9.00998 28.3726C9.22038 28.8594 9.61554 29.2427 10.1085 29.4382L11.0385 29.8082C11.5316 30.0033 12.082 29.9948 12.5687 29.7844C13.0555 29.574 13.4388 29.179 13.6345 28.6862L14.5115 26.4792L16.3695 27.2162C17.1093 27.5094 17.9351 27.497 18.6657 27.1816C19.3962 26.8662 19.9717 26.2737 20.2655 25.5342L22.8005 19.1442L24.7175 19.9042L26.3305 15.8382V15.8362Z" fill="black" fill-opacity="0.9"/>
</svg>
