<svg width="16" height="22" viewBox="0 0 16 22" fill="none" xmlns="http://www.w3.org/2000/svg">
<path d="M0.5 21.5H15.5V17.75C15.4984 16.3581 14.9448 15.0237 13.9606 14.0394C12.9763 13.0552 11.6419 12.5016 10.25 12.5H5.75C4.3581 12.5016 3.02367 13.0552 2.03944 14.0394C1.05522 15.0237 0.501588 16.3581 0.5 17.75V21.5ZM2.75 5.75C2.75 6.78835 3.05791 7.80339 3.63478 8.66674C4.21166 9.5301 5.0316 10.203 5.99091 10.6004C6.95022 10.9977 8.00582 11.1017 9.02423 10.8991C10.0426 10.6966 10.9781 10.1965 11.7123 9.46231C12.4465 8.72808 12.9466 7.79262 13.1491 6.77422C13.3517 5.75582 13.2477 4.70022 12.8504 3.74091C12.453 2.7816 11.7801 1.96166 10.9167 1.38478C10.0534 0.807907 9.03835 0.5 8 0.5C6.60761 0.5 5.27226 1.05312 4.28769 2.03769C3.30312 3.02226 2.75 4.35761 2.75 5.75Z" fill="white"/>
</svg>
