<svg width="25" height="25" viewBox="0 0 25 25" fill="none" xmlns="http://www.w3.org/2000/svg">
<path d="M7.60933 23.2755L20 10.8848L14.1147 4.99951L1.724 17.3902C1.55342 17.561 1.43225 17.7748 1.37333 18.0088L0 24.9995L6.98933 23.6262C7.224 23.5675 7.43867 23.4462 7.60933 23.2755ZM24 6.88485C24.4999 6.38477 24.7808 5.70662 24.7808 4.99951C24.7808 4.29241 24.4999 3.61425 24 3.11418L21.8853 0.999514C21.3853 0.499591 20.7071 0.21875 20 0.21875C19.2929 0.21875 18.6147 0.499591 18.1147 0.999514L16 3.11418L21.8853 8.99951L24 6.88485Z" fill="black" fill-opacity="0.9"/>
</svg>
