<svg width="45" height="45" viewBox="0 0 45 45" fill="none" xmlns="http://www.w3.org/2000/svg">
<circle cx="22.5" cy="22.5" r="21.5" stroke="#3876D0" stroke-width="2"/>
<path d="M28.1108 20.302C28.1108 21.1165 27.9144 21.8802 27.5217 22.5929C27.1435 23.3056 26.5399 23.8802 25.7108 24.3165C24.8962 24.7529 23.8635 24.9711 22.6126 24.9711H20.0599V30.8184H17.0053V15.5893H22.6126C23.7908 15.5893 24.7944 15.7929 25.6235 16.2002C26.4526 16.6074 27.0708 17.1674 27.4781 17.8802C27.8999 18.5929 28.1108 19.4002 28.1108 20.302ZM22.4817 22.5056C23.3253 22.5056 23.9508 22.3165 24.3581 21.9384C24.7653 21.5456 24.969 21.0002 24.969 20.302C24.969 18.8184 24.1399 18.0765 22.4817 18.0765H20.0599V22.5056H22.4817Z" fill="#3876D0"/>
</svg>
